G75*
%MOIN*%
%OFA0B0*%
%FSLAX25Y25*%
%IPPOS*%
%LPD*%
%AMOC8*
5,1,8,0,0,1.08239X$1,22.5*
%
%ADD10C,0.07400*%
%ADD11C,0.01000*%
%ADD12C,0.02700*%
D10*
X0008300Y0007300D03*
X0018300Y0007300D03*
X0028300Y0007300D03*
X0028300Y0037300D03*
X0018300Y0037300D03*
X0008300Y0037300D03*
D11*
X0005050Y0031050D02*
X0005050Y0009300D01*
X0008300Y0007300D01*
X0011359Y0011878D02*
X0009374Y0012700D01*
X0007250Y0012700D01*
X0007250Y0020501D01*
X0007981Y0019770D01*
X0009078Y0019316D01*
X0010265Y0019316D01*
X0011362Y0019770D01*
X0012201Y0020610D01*
X0012655Y0021706D01*
X0012655Y0022894D01*
X0012201Y0023990D01*
X0011362Y0024830D01*
X0010265Y0025284D01*
X0009078Y0025284D01*
X0007981Y0024830D01*
X0007250Y0024099D01*
X0007250Y0029850D01*
X0008943Y0029850D01*
X0009469Y0029675D01*
X0009819Y0029850D01*
X0010211Y0029850D01*
X0010603Y0030242D01*
X0012379Y0031130D01*
X0012693Y0031000D01*
X0013907Y0031000D01*
X0015028Y0031464D01*
X0015886Y0032322D01*
X0015933Y0032436D01*
X0017226Y0031900D01*
X0019374Y0031900D01*
X0021359Y0032722D01*
X0022878Y0034241D01*
X0023300Y0035260D01*
X0023722Y0034241D01*
X0025241Y0032722D01*
X0027226Y0031900D01*
X0029374Y0031900D01*
X0031359Y0032722D01*
X0031575Y0032938D01*
X0031575Y0011662D01*
X0031359Y0011878D01*
X0029374Y0012700D01*
X0027226Y0012700D01*
X0025241Y0011878D01*
X0023722Y0010359D01*
X0023191Y0009076D01*
X0023119Y0009296D01*
X0022747Y0010025D01*
X0022266Y0010688D01*
X0021688Y0011266D01*
X0021025Y0011747D01*
X0020296Y0012119D01*
X0019518Y0012372D01*
X0018800Y0012486D01*
X0018800Y0007800D01*
X0017800Y0007800D01*
X0017800Y0012486D01*
X0017082Y0012372D01*
X0016304Y0012119D01*
X0015575Y0011747D01*
X0014912Y0011266D01*
X0014334Y0010688D01*
X0013853Y0010025D01*
X0013481Y0009296D01*
X0013409Y0009076D01*
X0012878Y0010359D01*
X0011359Y0011878D01*
X0010979Y0012035D02*
X0016139Y0012035D01*
X0017800Y0012035D02*
X0018800Y0012035D01*
X0018800Y0011037D02*
X0017800Y0011037D01*
X0017800Y0010038D02*
X0018800Y0010038D01*
X0018800Y0009040D02*
X0017800Y0009040D01*
X0017800Y0008041D02*
X0018800Y0008041D01*
X0021917Y0011037D02*
X0024400Y0011037D01*
X0023589Y0010038D02*
X0022738Y0010038D01*
X0020461Y0012035D02*
X0025621Y0012035D01*
X0030979Y0012035D02*
X0031575Y0012035D01*
X0031575Y0013034D02*
X0007250Y0013034D01*
X0007250Y0014032D02*
X0031575Y0014032D01*
X0031575Y0015031D02*
X0007250Y0015031D01*
X0007250Y0016029D02*
X0031575Y0016029D01*
X0031575Y0017028D02*
X0007250Y0017028D01*
X0007250Y0018026D02*
X0031575Y0018026D01*
X0031575Y0019025D02*
X0007250Y0019025D01*
X0007250Y0020023D02*
X0007728Y0020023D01*
X0011615Y0020023D02*
X0031575Y0020023D01*
X0031575Y0021022D02*
X0012372Y0021022D01*
X0012655Y0022020D02*
X0031575Y0022020D01*
X0031575Y0023019D02*
X0012604Y0023019D01*
X0012174Y0024017D02*
X0031575Y0024017D01*
X0031575Y0025016D02*
X0010913Y0025016D01*
X0008429Y0025016D02*
X0007250Y0025016D01*
X0007250Y0026014D02*
X0031575Y0026014D01*
X0031575Y0027013D02*
X0007250Y0027013D01*
X0007250Y0028011D02*
X0031575Y0028011D01*
X0031575Y0029010D02*
X0007250Y0029010D01*
X0005050Y0031050D02*
X0006050Y0032050D01*
X0009300Y0032050D01*
X0013300Y0034050D01*
X0015569Y0032005D02*
X0016972Y0032005D01*
X0019628Y0032005D02*
X0026972Y0032005D01*
X0024959Y0033004D02*
X0021641Y0033004D01*
X0022639Y0034002D02*
X0023961Y0034002D01*
X0023407Y0035001D02*
X0023193Y0035001D01*
X0029628Y0032005D02*
X0031575Y0032005D01*
X0031575Y0031007D02*
X0013923Y0031007D01*
X0012677Y0031007D02*
X0012133Y0031007D01*
X0010370Y0030008D02*
X0031575Y0030008D01*
X0014683Y0011037D02*
X0012200Y0011037D01*
X0013011Y0010038D02*
X0013862Y0010038D01*
D12*
X0013550Y0010800D03*
X0023300Y0010800D03*
X0025800Y0022050D03*
X0023300Y0034300D03*
X0013300Y0034050D03*
M02*
