G75*
%MOIN*%
%OFA0B0*%
%FSLAX25Y25*%
%IPPOS*%
%LPD*%
%AMOC8*
5,1,8,0,0,1.08239X$1,22.5*
%
%ADD10C,0.00400*%
D10*
X0013590Y0012850D02*
X0013991Y0013251D01*
X0014791Y0013251D01*
X0015192Y0013651D01*
X0014791Y0014051D01*
X0013590Y0014051D01*
X0013590Y0012850D02*
X0013991Y0012450D01*
X0015192Y0012450D01*
X0016110Y0012450D02*
X0016510Y0012850D01*
X0016510Y0014452D01*
X0016110Y0014051D02*
X0016911Y0014051D01*
X0017887Y0014051D02*
X0019088Y0014051D01*
X0019489Y0013651D01*
X0019489Y0012850D01*
X0019088Y0012450D01*
X0017887Y0012450D01*
X0020466Y0012450D02*
X0020466Y0014051D01*
X0020466Y0012450D02*
X0021667Y0012450D01*
X0022067Y0012850D01*
X0022067Y0014051D01*
X0023044Y0014051D02*
X0024245Y0014051D01*
X0024645Y0013651D01*
X0024645Y0012850D01*
X0024245Y0012450D01*
X0023044Y0012450D01*
X0023044Y0014852D01*
X0023014Y0016650D02*
X0024215Y0017451D01*
X0023014Y0018251D01*
X0022067Y0018251D02*
X0022067Y0017050D01*
X0021667Y0016650D01*
X0020466Y0016650D01*
X0020466Y0016250D02*
X0020866Y0015849D01*
X0021266Y0015849D01*
X0020466Y0016250D02*
X0020466Y0018251D01*
X0020971Y0021450D02*
X0021372Y0021450D01*
X0021372Y0021850D01*
X0020971Y0021850D01*
X0020971Y0021450D01*
X0020083Y0021850D02*
X0018481Y0023452D01*
X0018481Y0021850D01*
X0018882Y0021450D01*
X0019682Y0021450D01*
X0020083Y0021850D01*
X0020083Y0023452D01*
X0019682Y0023852D01*
X0018882Y0023852D01*
X0018481Y0023452D01*
X0017505Y0022651D02*
X0015903Y0022651D01*
X0016303Y0021450D02*
X0016303Y0023852D01*
X0017505Y0022651D01*
X0018258Y0025650D02*
X0019059Y0025650D01*
X0018659Y0025650D02*
X0018659Y0028052D01*
X0019059Y0028052D01*
X0020036Y0026851D02*
X0020036Y0025650D01*
X0021237Y0025650D01*
X0021637Y0026050D01*
X0021237Y0026451D01*
X0020036Y0026451D01*
X0020036Y0026851D02*
X0020436Y0027251D01*
X0021237Y0027251D01*
X0022555Y0027251D02*
X0023356Y0027251D01*
X0022956Y0027652D02*
X0022956Y0026050D01*
X0022555Y0025650D01*
X0024274Y0025650D02*
X0025075Y0025650D01*
X0024674Y0025650D02*
X0024674Y0027251D01*
X0025075Y0027251D01*
X0024674Y0028052D02*
X0024674Y0028452D01*
X0025075Y0029850D02*
X0025075Y0032252D01*
X0023874Y0032252D01*
X0023473Y0031852D01*
X0023473Y0031051D01*
X0023874Y0030651D01*
X0025075Y0030651D01*
X0026052Y0029850D02*
X0026052Y0032252D01*
X0026852Y0031451D01*
X0027653Y0032252D01*
X0027653Y0029850D01*
X0028630Y0029850D02*
X0028630Y0032252D01*
X0030231Y0032252D02*
X0028630Y0029850D01*
X0028971Y0028452D02*
X0028971Y0028052D01*
X0028971Y0027251D02*
X0028971Y0025650D01*
X0028571Y0025650D02*
X0029372Y0025650D01*
X0030349Y0026050D02*
X0030349Y0027652D01*
X0030749Y0028052D01*
X0031950Y0028052D01*
X0031950Y0025650D01*
X0030749Y0025650D01*
X0030349Y0026050D01*
X0029372Y0027251D02*
X0028971Y0027251D01*
X0027653Y0026851D02*
X0027653Y0026050D01*
X0027253Y0025650D01*
X0026052Y0025650D01*
X0026052Y0025250D02*
X0026052Y0027251D01*
X0027253Y0027251D01*
X0027653Y0026851D01*
X0026852Y0024849D02*
X0026452Y0024849D01*
X0026052Y0025250D01*
X0023950Y0023051D02*
X0023149Y0021450D01*
X0022349Y0023051D01*
X0024215Y0019052D02*
X0024215Y0016650D01*
X0025192Y0017050D02*
X0025593Y0017451D01*
X0026393Y0017451D01*
X0026794Y0017851D01*
X0026393Y0018251D01*
X0025192Y0018251D01*
X0025192Y0017050D02*
X0025593Y0016650D01*
X0026794Y0016650D01*
X0027770Y0017451D02*
X0029372Y0017451D01*
X0029372Y0017851D02*
X0029372Y0017050D01*
X0028971Y0016650D01*
X0028171Y0016650D01*
X0027770Y0017451D02*
X0027770Y0017851D01*
X0028171Y0018251D01*
X0028971Y0018251D01*
X0029372Y0017851D01*
X0030349Y0017851D02*
X0030349Y0018652D01*
X0030749Y0019052D01*
X0031950Y0019052D01*
X0031950Y0016650D01*
X0031950Y0017451D02*
X0030749Y0017451D01*
X0030349Y0017851D01*
X0030749Y0014852D02*
X0030349Y0014452D01*
X0030349Y0013651D01*
X0030749Y0013251D01*
X0031950Y0013251D01*
X0031950Y0012450D02*
X0031950Y0014852D01*
X0030749Y0014852D01*
X0029372Y0014051D02*
X0029372Y0012450D01*
X0029372Y0013251D02*
X0028571Y0014051D01*
X0028171Y0014051D01*
X0027223Y0013651D02*
X0027223Y0012850D01*
X0026823Y0012450D01*
X0026022Y0012450D01*
X0025622Y0012850D01*
X0025622Y0013651D01*
X0026022Y0014051D01*
X0026823Y0014051D01*
X0027223Y0013651D01*
X0014926Y0021450D02*
X0013325Y0023051D01*
X0014926Y0023051D02*
X0013325Y0021450D01*
X0013161Y0025650D02*
X0013161Y0028052D01*
X0013961Y0027251D01*
X0014762Y0028052D01*
X0014762Y0025650D01*
X0012184Y0025650D02*
X0011383Y0025650D01*
X0011783Y0025650D02*
X0011783Y0027251D01*
X0012184Y0027251D01*
X0011783Y0028052D02*
X0011783Y0028452D01*
X0011783Y0029850D02*
X0011783Y0032252D01*
X0011383Y0032252D02*
X0012184Y0032252D01*
X0010465Y0031852D02*
X0010065Y0032252D01*
X0009264Y0032252D01*
X0008864Y0031852D01*
X0008864Y0031451D01*
X0010465Y0029850D01*
X0008864Y0029850D01*
X0007887Y0030250D02*
X0007486Y0029850D01*
X0006686Y0029850D01*
X0006285Y0030250D01*
X0006285Y0030651D01*
X0006686Y0031051D01*
X0007486Y0031051D01*
X0007887Y0031451D01*
X0007887Y0031852D01*
X0007486Y0032252D01*
X0006686Y0032252D01*
X0006285Y0031852D01*
X0008864Y0027251D02*
X0010065Y0027251D01*
X0010465Y0026851D01*
X0010465Y0026050D01*
X0010065Y0025650D01*
X0008864Y0025650D01*
X0011383Y0029850D02*
X0012184Y0029850D01*
X0015739Y0029850D02*
X0017340Y0029850D01*
X0016540Y0029850D02*
X0016540Y0032252D01*
X0017340Y0031451D01*
X0018317Y0031051D02*
X0019918Y0031051D01*
X0018717Y0032252D01*
X0018717Y0029850D01*
X0020895Y0031051D02*
X0022497Y0031051D01*
X0021296Y0032252D01*
X0021296Y0029850D01*
X0030231Y0029850D02*
X0030231Y0032252D01*
X0031149Y0032252D02*
X0031950Y0032252D01*
X0031550Y0032252D02*
X0031550Y0029850D01*
X0031950Y0029850D02*
X0031149Y0029850D01*
M02*
