G75*
%MOIN*%
%OFA0B0*%
%FSLAX25Y25*%
%IPPOS*%
%LPD*%
%AMOC8*
5,1,8,0,0,1.08239X$1,22.5*
%
%ADD10C,0.00400*%
%ADD11C,0.00500*%
%ADD12C,0.01600*%
%ADD13R,0.02800X0.01600*%
D10*
X0006750Y0011600D02*
X0007417Y0012267D01*
X0008084Y0011600D01*
X0008084Y0013602D01*
X0008960Y0013268D02*
X0008960Y0012934D01*
X0009293Y0012601D01*
X0009961Y0012601D01*
X0010294Y0012267D01*
X0010294Y0011934D01*
X0009961Y0011600D01*
X0009293Y0011600D01*
X0008960Y0011934D01*
X0008960Y0013268D02*
X0009293Y0013602D01*
X0009961Y0013602D01*
X0010294Y0013268D01*
X0006750Y0013602D02*
X0006750Y0011600D01*
X0015500Y0011934D02*
X0015834Y0011600D01*
X0016501Y0011600D01*
X0016834Y0011934D01*
X0016834Y0012601D01*
X0016167Y0012601D01*
X0016834Y0013268D02*
X0016501Y0013602D01*
X0015834Y0013602D01*
X0015500Y0013268D01*
X0015500Y0011934D01*
X0017710Y0011600D02*
X0017710Y0013602D01*
X0019044Y0011600D01*
X0019044Y0013602D01*
X0019920Y0013602D02*
X0020921Y0013602D01*
X0021254Y0013268D01*
X0021254Y0011934D01*
X0020921Y0011600D01*
X0019920Y0011600D01*
X0019920Y0013602D01*
X0025500Y0013268D02*
X0025834Y0013602D01*
X0026501Y0013602D01*
X0026834Y0013268D01*
X0026834Y0012934D01*
X0026501Y0012601D01*
X0026834Y0012267D01*
X0026834Y0011934D01*
X0026501Y0011600D01*
X0025834Y0011600D01*
X0025500Y0011934D01*
X0026167Y0012601D02*
X0026501Y0012601D01*
X0027710Y0012267D02*
X0028377Y0011600D01*
X0029044Y0012267D01*
X0029044Y0013602D01*
X0029920Y0013268D02*
X0030253Y0013602D01*
X0030921Y0013602D01*
X0031254Y0013268D01*
X0031254Y0012934D01*
X0030921Y0012601D01*
X0031254Y0012267D01*
X0031254Y0011934D01*
X0030921Y0011600D01*
X0030253Y0011600D01*
X0029920Y0011934D01*
X0030587Y0012601D02*
X0030921Y0012601D01*
X0027710Y0012267D02*
X0027710Y0013602D01*
X0027460Y0031000D02*
X0028794Y0031000D01*
X0029670Y0031000D02*
X0029670Y0033002D01*
X0030003Y0032001D02*
X0031004Y0031000D01*
X0029670Y0031667D02*
X0031004Y0033002D01*
X0027460Y0033002D02*
X0027460Y0031000D01*
X0026584Y0031334D02*
X0026251Y0031000D01*
X0025584Y0031000D01*
X0025250Y0031334D01*
X0025250Y0032668D01*
X0025584Y0033002D01*
X0026251Y0033002D01*
X0026584Y0032668D01*
X0020044Y0032668D02*
X0020044Y0031334D01*
X0019711Y0031000D01*
X0018710Y0031000D01*
X0018710Y0033002D01*
X0019711Y0033002D01*
X0020044Y0032668D01*
X0017834Y0032668D02*
X0017501Y0033002D01*
X0016834Y0033002D01*
X0016500Y0032668D01*
X0016500Y0032334D01*
X0016834Y0032001D01*
X0017501Y0032001D01*
X0017834Y0031667D01*
X0017834Y0031334D01*
X0017501Y0031000D01*
X0016834Y0031000D01*
X0016500Y0031334D01*
X0011004Y0031000D02*
X0010337Y0031667D01*
X0010671Y0031667D02*
X0009670Y0031667D01*
X0009670Y0031000D02*
X0009670Y0033002D01*
X0010671Y0033002D01*
X0011004Y0032668D01*
X0011004Y0032001D01*
X0010671Y0031667D01*
X0008794Y0033002D02*
X0007460Y0031000D01*
X0006584Y0031000D02*
X0005250Y0031000D01*
X0005250Y0033002D01*
D11*
X0004907Y0030174D02*
X0024593Y0030174D01*
X0024593Y0014426D01*
X0004907Y0014426D01*
X0004907Y0030174D01*
D12*
X0029330Y0017800D02*
X0029570Y0017800D01*
D13*
X0029450Y0026600D03*
M02*
