G75*
%MOIN*%
%OFA0B0*%
%FSLAX25Y25*%
%IPPOS*%
%LPD*%
%AMOC8*
5,1,8,0,0,1.08239X$1,22.5*
%
%ADD10C,0.01339*%
%ADD11R,0.02175X0.02962*%
%ADD12R,0.01781X0.01781*%
%ADD13C,0.02569*%
%ADD14R,0.04143X0.03356*%
%ADD15C,0.08000*%
D10*
X0007191Y0022300D02*
X0007193Y0022399D01*
X0007199Y0022498D01*
X0007209Y0022597D01*
X0007223Y0022695D01*
X0007240Y0022793D01*
X0007262Y0022890D01*
X0007288Y0022986D01*
X0007317Y0023081D01*
X0007350Y0023174D01*
X0007387Y0023266D01*
X0007427Y0023357D01*
X0007472Y0023446D01*
X0007519Y0023533D01*
X0007570Y0023618D01*
X0007625Y0023701D01*
X0007682Y0023782D01*
X0007743Y0023860D01*
X0007807Y0023936D01*
X0007874Y0024009D01*
X0007944Y0024080D01*
X0008016Y0024147D01*
X0008092Y0024212D01*
X0008169Y0024274D01*
X0008250Y0024332D01*
X0008332Y0024388D01*
X0008417Y0024439D01*
X0008503Y0024488D01*
X0008592Y0024533D01*
X0008682Y0024574D01*
X0008774Y0024612D01*
X0008867Y0024646D01*
X0008961Y0024676D01*
X0009057Y0024703D01*
X0009154Y0024725D01*
X0009251Y0024744D01*
X0009349Y0024759D01*
X0009448Y0024770D01*
X0009547Y0024777D01*
X0009646Y0024780D01*
X0009745Y0024779D01*
X0009845Y0024774D01*
X0009943Y0024765D01*
X0010042Y0024752D01*
X0010140Y0024735D01*
X0010237Y0024715D01*
X0010333Y0024690D01*
X0010428Y0024662D01*
X0010522Y0024629D01*
X0010614Y0024594D01*
X0010705Y0024554D01*
X0010795Y0024511D01*
X0010882Y0024464D01*
X0010968Y0024414D01*
X0011051Y0024360D01*
X0011133Y0024303D01*
X0011212Y0024243D01*
X0011288Y0024180D01*
X0011362Y0024114D01*
X0011433Y0024045D01*
X0011502Y0023973D01*
X0011567Y0023898D01*
X0011630Y0023821D01*
X0011689Y0023742D01*
X0011745Y0023660D01*
X0011798Y0023576D01*
X0011847Y0023490D01*
X0011893Y0023402D01*
X0011935Y0023312D01*
X0011974Y0023220D01*
X0012009Y0023127D01*
X0012040Y0023033D01*
X0012068Y0022938D01*
X0012091Y0022841D01*
X0012111Y0022744D01*
X0012127Y0022646D01*
X0012139Y0022548D01*
X0012147Y0022449D01*
X0012151Y0022350D01*
X0012151Y0022250D01*
X0012147Y0022151D01*
X0012139Y0022052D01*
X0012127Y0021954D01*
X0012111Y0021856D01*
X0012091Y0021759D01*
X0012068Y0021662D01*
X0012040Y0021567D01*
X0012009Y0021473D01*
X0011974Y0021380D01*
X0011935Y0021288D01*
X0011893Y0021198D01*
X0011847Y0021110D01*
X0011798Y0021024D01*
X0011745Y0020940D01*
X0011689Y0020858D01*
X0011630Y0020779D01*
X0011567Y0020702D01*
X0011502Y0020627D01*
X0011433Y0020555D01*
X0011362Y0020486D01*
X0011288Y0020420D01*
X0011212Y0020357D01*
X0011133Y0020297D01*
X0011051Y0020240D01*
X0010968Y0020186D01*
X0010882Y0020136D01*
X0010795Y0020089D01*
X0010705Y0020046D01*
X0010614Y0020006D01*
X0010522Y0019971D01*
X0010428Y0019938D01*
X0010333Y0019910D01*
X0010237Y0019885D01*
X0010140Y0019865D01*
X0010042Y0019848D01*
X0009943Y0019835D01*
X0009845Y0019826D01*
X0009745Y0019821D01*
X0009646Y0019820D01*
X0009547Y0019823D01*
X0009448Y0019830D01*
X0009349Y0019841D01*
X0009251Y0019856D01*
X0009154Y0019875D01*
X0009057Y0019897D01*
X0008961Y0019924D01*
X0008867Y0019954D01*
X0008774Y0019988D01*
X0008682Y0020026D01*
X0008592Y0020067D01*
X0008503Y0020112D01*
X0008417Y0020161D01*
X0008332Y0020212D01*
X0008250Y0020268D01*
X0008169Y0020326D01*
X0008092Y0020388D01*
X0008016Y0020453D01*
X0007944Y0020520D01*
X0007874Y0020591D01*
X0007807Y0020664D01*
X0007743Y0020740D01*
X0007682Y0020818D01*
X0007625Y0020899D01*
X0007570Y0020982D01*
X0007519Y0021067D01*
X0007472Y0021154D01*
X0007427Y0021243D01*
X0007387Y0021334D01*
X0007350Y0021426D01*
X0007317Y0021519D01*
X0007288Y0021614D01*
X0007262Y0021710D01*
X0007240Y0021807D01*
X0007223Y0021905D01*
X0007209Y0022003D01*
X0007199Y0022102D01*
X0007193Y0022201D01*
X0007191Y0022300D01*
D11*
X0009671Y0017064D03*
X0013805Y0017064D03*
X0017939Y0017064D03*
X0022073Y0017064D03*
X0022073Y0027536D03*
X0017939Y0027536D03*
X0013805Y0027536D03*
X0009671Y0027536D03*
D12*
X0007191Y0022359D03*
D13*
X0009671Y0022300D03*
D14*
X0029450Y0024041D03*
X0029450Y0020359D03*
X0029450Y0015241D03*
X0029450Y0029159D03*
D15*
X0008300Y0007300D03*
X0018300Y0007300D03*
X0028300Y0007300D03*
X0028300Y0037300D03*
X0018300Y0037300D03*
X0008300Y0037300D03*
M02*
