G75*
%MOIN*%
%OFA0B0*%
%FSLAX25Y25*%
%IPPOS*%
%LPD*%
%AMOC8*
5,1,8,0,0,1.08239X$1,22.5*
%
%ADD10C,0.00000*%
D10*
X0003050Y0002050D02*
X0033575Y0002050D01*
X0033575Y0042550D01*
X0003050Y0042550D01*
X0003050Y0002050D01*
X0008687Y0022300D02*
X0008689Y0022362D01*
X0008695Y0022425D01*
X0008705Y0022486D01*
X0008719Y0022547D01*
X0008736Y0022607D01*
X0008757Y0022666D01*
X0008783Y0022723D01*
X0008811Y0022778D01*
X0008843Y0022832D01*
X0008879Y0022883D01*
X0008917Y0022933D01*
X0008959Y0022979D01*
X0009003Y0023023D01*
X0009051Y0023064D01*
X0009100Y0023102D01*
X0009152Y0023136D01*
X0009206Y0023167D01*
X0009262Y0023195D01*
X0009320Y0023219D01*
X0009379Y0023240D01*
X0009439Y0023256D01*
X0009500Y0023269D01*
X0009562Y0023278D01*
X0009624Y0023283D01*
X0009687Y0023284D01*
X0009749Y0023281D01*
X0009811Y0023274D01*
X0009873Y0023263D01*
X0009933Y0023248D01*
X0009993Y0023230D01*
X0010051Y0023208D01*
X0010108Y0023182D01*
X0010163Y0023152D01*
X0010216Y0023119D01*
X0010267Y0023083D01*
X0010315Y0023044D01*
X0010361Y0023001D01*
X0010404Y0022956D01*
X0010444Y0022908D01*
X0010481Y0022858D01*
X0010515Y0022805D01*
X0010546Y0022751D01*
X0010572Y0022695D01*
X0010596Y0022637D01*
X0010615Y0022577D01*
X0010631Y0022517D01*
X0010643Y0022455D01*
X0010651Y0022394D01*
X0010655Y0022331D01*
X0010655Y0022269D01*
X0010651Y0022206D01*
X0010643Y0022145D01*
X0010631Y0022083D01*
X0010615Y0022023D01*
X0010596Y0021963D01*
X0010572Y0021905D01*
X0010546Y0021849D01*
X0010515Y0021795D01*
X0010481Y0021742D01*
X0010444Y0021692D01*
X0010404Y0021644D01*
X0010361Y0021599D01*
X0010315Y0021556D01*
X0010267Y0021517D01*
X0010216Y0021481D01*
X0010163Y0021448D01*
X0010108Y0021418D01*
X0010051Y0021392D01*
X0009993Y0021370D01*
X0009933Y0021352D01*
X0009873Y0021337D01*
X0009811Y0021326D01*
X0009749Y0021319D01*
X0009687Y0021316D01*
X0009624Y0021317D01*
X0009562Y0021322D01*
X0009500Y0021331D01*
X0009439Y0021344D01*
X0009379Y0021360D01*
X0009320Y0021381D01*
X0009262Y0021405D01*
X0009206Y0021433D01*
X0009152Y0021464D01*
X0009100Y0021498D01*
X0009051Y0021536D01*
X0009003Y0021577D01*
X0008959Y0021621D01*
X0008917Y0021667D01*
X0008879Y0021717D01*
X0008843Y0021768D01*
X0008811Y0021822D01*
X0008783Y0021877D01*
X0008757Y0021934D01*
X0008736Y0021993D01*
X0008719Y0022053D01*
X0008705Y0022114D01*
X0008695Y0022175D01*
X0008689Y0022238D01*
X0008687Y0022300D01*
M02*
